<svg width="44" height="44" viewBox="0 0 44 44" fill="none" xmlns="http://www.w3.org/2000/svg">
<path d="M20.625 33.4583H16.5C14.4833 33.4583 12.8333 35.1083 12.8333 37.125V37.5833H11C10.2483 37.5833 9.625 38.2067 9.625 38.9583C9.625 39.71 10.2483 40.3333 11 40.3333H33C33.7517 40.3333 34.375 39.71 34.375 38.9583C34.375 38.2067 33.7517 37.5833 33 37.5833H31.1667V37.125C31.1667 35.1083 29.5167 33.4583 27.5 33.4583H23.375V29.26C22.9167 29.315 22.4583 29.3333 22 29.3333C21.5417 29.3333 21.0833 29.315 20.625 29.26V33.4583Z" fill="#0B032D"/>
<path d="M33.8797 21.3401C35.0897 20.8817 36.153 20.1301 36.9964 19.2867C38.7014 17.3984 39.8197 15.1434 39.8197 12.5034C39.8197 9.86342 37.748 7.79175 35.108 7.79175H34.0814C32.8897 5.35341 30.3964 3.66675 27.4997 3.66675H16.4997C13.603 3.66675 11.1097 5.35341 9.91802 7.79175H8.89135C6.25135 7.79175 4.17969 9.86342 4.17969 12.5034C4.17969 15.1434 5.29802 17.3984 7.00302 19.2867C7.84635 20.1301 8.90969 20.8817 10.1197 21.3401C12.0264 26.0334 16.6097 29.3334 21.9997 29.3334C27.3897 29.3334 31.973 26.0334 33.8797 21.3401ZM27.2064 15.4917L26.0697 16.8851C25.8864 17.0867 25.758 17.4901 25.7764 17.7651L25.8864 19.5617C25.9597 20.6617 25.1714 21.2301 24.1447 20.8267L22.4764 20.1667C22.2197 20.0751 21.7797 20.0751 21.523 20.1667L19.8547 20.8267C18.828 21.2301 18.0397 20.6617 18.113 19.5617L18.223 17.7651C18.2414 17.4901 18.113 17.0867 17.9297 16.8851L16.793 15.4917C16.078 14.6484 16.3897 13.7134 17.453 13.4384L19.1947 12.9984C19.4697 12.9251 19.7997 12.6684 19.9464 12.4301L20.918 10.9267C21.523 9.99175 22.4764 9.99175 23.0814 10.9267L24.053 12.4301C24.1997 12.6684 24.5297 12.9251 24.8047 12.9984L26.5464 13.4384C27.6097 13.7134 27.9214 14.6484 27.2064 15.4917Z" fill="#0B032D"/>
</svg>
