<svg width="21" height="20" viewBox="0 0 21 20" fill="none" xmlns="http://www.w3.org/2000/svg">
<path d="M13.9915 1.66675H7.00817C3.97484 1.66675 2.1665 3.47508 2.1665 6.50841V13.4834C2.1665 16.5251 3.97484 18.3334 7.00817 18.3334H13.9832C17.0165 18.3334 18.8248 16.5251 18.8248 13.4917V6.50841C18.8332 3.47508 17.0248 1.66675 13.9915 1.66675ZM7.58317 5.31675C8.4415 5.31675 9.14984 6.01675 9.14984 6.88342C9.14984 7.75008 8.44984 8.45008 7.58317 8.45008C6.7165 8.45008 6.0165 7.73342 6.0165 6.87508C6.0165 6.01675 6.72484 5.31675 7.58317 5.31675ZM10.4998 15.9001C8.25817 15.9001 6.43317 14.0751 6.43317 11.8334C6.43317 11.2501 6.90817 10.7667 7.4915 10.7667H13.4915C14.0748 10.7667 14.5498 11.2417 14.5498 11.8334C14.5665 14.0751 12.7415 15.9001 10.4998 15.9001ZM13.4165 8.43341C12.5582 8.43341 11.8498 7.73341 11.8498 6.86675C11.8498 6.00008 12.5498 5.30008 13.4165 5.30008C14.2832 5.30008 14.9832 6.00008 14.9832 6.86675C14.9832 7.73341 14.2748 8.43341 13.4165 8.43341Z" fill="#25B577"/>
</svg>
