<svg width="21" height="20" viewBox="0 0 21 20" fill="none" xmlns="http://www.w3.org/2000/svg">
<path d="M13.9915 1.66675H7.00817C3.97484 1.66675 2.1665 3.47508 2.1665 6.50841V13.4834C2.1665 16.5251 3.97484 18.3334 7.00817 18.3334H13.9832C17.0165 18.3334 18.8248 16.5251 18.8248 13.4917V6.50841C18.8332 3.47508 17.0248 1.66675 13.9915 1.66675ZM5.8915 7.73341C5.64984 7.49175 5.64984 7.09175 5.8915 6.85008C6.9665 5.77508 8.72484 5.77508 9.80817 6.85008C10.0498 7.09175 10.0498 7.49175 9.80817 7.73341C9.68317 7.85841 9.52484 7.91675 9.3665 7.91675C9.20817 7.91675 9.04984 7.85841 8.92484 7.73341C8.33317 7.14175 7.3665 7.14175 6.77484 7.73341C6.53317 7.98341 6.13317 7.98341 5.8915 7.73341ZM13.4998 15.0667H7.49984C6.9165 15.0667 6.4415 14.5917 6.4415 14.0001C6.4415 11.7584 8.2665 9.93342 10.5082 9.93342C12.7498 9.93342 14.5748 11.7584 14.5748 14.0001C14.5665 14.5834 14.0832 15.0667 13.4998 15.0667ZM15.1082 7.73341C14.8665 7.97508 14.4665 7.97508 14.2248 7.73341C13.6332 7.14175 12.6665 7.14175 12.0748 7.73341C11.9498 7.85841 11.7915 7.91675 11.6332 7.91675C11.4748 7.91675 11.3165 7.85841 11.1915 7.73341C10.9498 7.49175 10.9498 7.09175 11.1915 6.85008C12.2665 5.77508 14.0248 5.77508 15.1082 6.85008C15.3498 7.10008 15.3498 7.49175 15.1082 7.73341Z" fill="#F34158"/>
</svg>
