<svg width="21" height="20" viewBox="0 0 21 20" fill="none" xmlns="http://www.w3.org/2000/svg">
<g clip-path="url(#clip0_5005_10981)">
<path d="M13.9833 18.3332H7.00831C3.97664 18.3332 2.16748 16.5199 2.16748 13.4832V6.50821C2.16748 3.47654 3.97747 1.66654 7.00831 1.66654H13.9916C14.6407 1.63334 15.2898 1.72987 15.9011 1.95051C16.5123 2.17115 17.0735 2.51146 17.5516 2.95153C17.9898 3.4299 18.3282 3.99087 18.5469 4.60157C18.7657 5.21227 18.8605 5.86043 18.8258 6.50821V13.4915C18.825 16.5232 17.015 18.3332 13.9833 18.3332ZM7.16664 12.8116C7.00141 12.8137 6.84356 12.8803 6.72679 12.9973C6.61003 13.1142 6.54358 13.2721 6.54164 13.4374C6.5438 13.6025 6.61034 13.7602 6.72709 13.8769C6.84383 13.9937 7.00155 14.0602 7.16664 14.0624H13.8333C13.999 14.0622 14.1579 13.9962 14.275 13.8791C14.3922 13.7619 14.4581 13.6031 14.4583 13.4374C14.4583 13.2715 14.3925 13.1125 14.2753 12.9951C14.1581 12.8778 13.9991 12.8118 13.8333 12.8116H7.16664ZM7.58331 6.14907C7.16904 6.1484 6.77143 6.31209 6.47772 6.60423C6.18401 6.89638 6.01818 7.29313 6.01664 7.70739C6.01597 8.12387 6.18056 8.52357 6.47427 8.81884C6.76799 9.11412 7.16683 9.28081 7.58331 9.28236C7.99868 9.28191 8.39691 9.11673 8.69063 8.82302C8.98434 8.5293 9.14954 8.13106 9.14998 7.71568C9.14932 7.30046 8.98402 6.90245 8.69033 6.60891C8.39665 6.31538 7.99853 6.14951 7.58331 6.14907ZM13.4166 6.13238C13.0013 6.13282 12.603 6.29801 12.3093 6.59172C12.0156 6.88543 11.8504 7.28368 11.85 7.69905C11.8504 8.11442 12.0156 8.51262 12.3093 8.80633C12.603 9.10004 13.0013 9.26528 13.4166 9.26572C13.8319 9.26506 14.2299 9.09977 14.5234 8.80608C14.8169 8.51239 14.982 8.11428 14.9825 7.69905C14.9818 7.28397 14.8166 6.88604 14.5231 6.59254C14.2296 6.29903 13.8317 6.13304 13.4166 6.13238Z" fill="#FCA018"/>
</g>
<defs>
<clipPath id="clip0_5005_10981">
<rect width="20" height="20" fill="white" transform="translate(0.5)"/>
</clipPath>
</defs>
</svg>
