<svg width="20" height="20" viewBox="0 0 20 20" fill="none" xmlns="http://www.w3.org/2000/svg">
<path d="M14.9594 3.62372L10.0002 8.58299L5.0409 3.62372C4.6536 3.23643 4.01126 3.23643 3.62397 3.62372C3.23667 4.01102 3.23667 4.65336 3.62397 5.04066L8.58323 9.99992L3.62397 14.9592C3.23667 15.3465 3.23667 15.9888 3.62397 16.3761C4.01126 16.7634 4.6536 16.7634 5.0409 16.3761L10.0002 11.4169L14.9594 16.3761C15.3467 16.7634 15.9891 16.7634 16.3764 16.3761C16.7637 15.9888 16.7637 15.3465 16.3764 14.9592L11.4171 9.99992L16.3764 5.04066C16.7637 4.65336 16.7637 4.01102 16.3764 3.62372C15.9891 3.23643 15.3467 3.23643 14.9594 3.62372Z" fill="#0B032D"/>
</svg>
