<svg width="88" height="37" viewBox="0 0 88 37" fill="none" xmlns="http://www.w3.org/2000/svg">
<g clip-path="url(#clip0_6_11532)">
<path d="M63.4484 7.15931L78.5424 3.87331C83.5764 3.18431 87.3424 7.79631 87.3424 12.6343V27.6543C87.3369 29.9829 86.4067 32.214 84.7565 33.8569C83.1062 35.4998 80.871 36.4201 78.5424 36.4153H63.4484C61.1198 36.4201 58.8846 35.4998 57.2344 33.8569C55.5842 32.214 54.654 29.9829 54.6484 27.6543V15.9203C54.6484 11.0813 58.5644 8.21331 63.4484 7.15931Z" fill="#FCBF17"/>
<path d="M35.7171 36.2905H26.1021C25.8891 36.3095 25.6741 36.3385 25.4701 36.3485C24.4831 36.3965 23.5311 36.2135 23.5901 34.9965C23.6411 33.8885 24.5511 33.7515 25.4701 33.7965C25.6851 33.8085 25.8981 33.8375 26.1021 33.8565H35.7171C36.5835 33.7092 37.4741 33.8198 38.2781 34.1745C39.2161 34.7525 39.2161 35.3615 38.2781 35.9695C37.8914 36.243 37.4243 36.3793 36.9511 36.3565C36.5431 36.3595 36.1291 36.2995 35.7171 36.2905ZM61.8731 34.9995C61.9161 33.6895 62.9021 33.7495 63.8481 33.8125C64.1168 33.8354 64.3867 33.8417 64.6561 33.8315H68.8331C69.0061 33.8184 69.1798 33.8438 69.3418 33.906C69.5037 33.9681 69.6498 34.0655 69.7695 34.1911C69.8893 34.3166 69.9796 34.4672 70.034 34.6319C70.0884 34.7966 70.1055 34.9714 70.0841 35.1435C70.0813 35.3037 70.0465 35.4616 69.9818 35.608C69.917 35.7545 69.8235 35.8865 69.707 35.9963C69.5904 36.106 69.453 36.1914 69.3029 36.2472C69.1528 36.3031 68.9931 36.3284 68.8331 36.3215H64.6571C64.3904 36.3084 64.1232 36.3131 63.8571 36.3355C63.6631 36.3465 63.4671 36.3575 63.2791 36.3575C62.4951 36.3585 61.8361 36.1665 61.8741 34.9985L61.8731 34.9995ZM78.0141 35.5295C77.8932 35.2902 77.8638 35.0149 77.9316 34.7554C77.9994 34.496 78.1596 34.2702 78.3821 34.1205C78.9305 33.8827 79.5214 33.7584 80.1192 33.7551C80.7169 33.7518 81.3092 33.8697 81.8601 34.1015C82.0759 34.2569 82.2328 34.4806 82.3055 34.7364C82.3781 34.9922 82.3621 35.265 82.2601 35.5105C82.0181 36.1465 81.4751 36.3485 79.9031 36.3395C79.7711 36.3455 79.6321 36.3525 79.4901 36.3525C79.1885 36.3894 78.883 36.3295 78.6177 36.1814C78.3524 36.0332 78.141 35.8056 78.0141 35.5295ZM20.7081 36.2905H2.74413C2.53113 36.3095 2.31713 36.3385 2.11513 36.3385C1.18313 36.3525 0.448126 35.9815 0.553126 34.9885C0.689126 33.6665 1.74713 33.7245 2.75313 33.8395H20.7081C21.023 33.8028 21.3403 33.7901 21.6571 33.8015C22.4571 33.8785 23.0141 34.3305 22.9081 35.1425C22.9015 35.3204 22.8572 35.4948 22.7784 35.6543C22.6996 35.8139 22.5879 35.9549 22.4506 36.0683C22.3134 36.1816 22.1538 36.2646 21.9822 36.3119C21.8106 36.3591 21.631 36.3696 21.4551 36.3425C21.2053 36.3402 20.9559 36.3229 20.7081 36.2905ZM39.3931 34.9905C39.4411 33.8905 40.3541 33.7455 41.2731 33.7905C41.4861 33.7995 41.7011 33.8185 41.9051 33.8385H49.9131C50.0852 33.8225 50.2587 33.8456 50.4205 33.9062C50.5824 33.9668 50.7284 34.0632 50.8476 34.1883C50.9669 34.3134 51.0562 34.4639 51.1089 34.6285C51.1617 34.7931 51.1764 34.9674 51.1521 35.1385C51.1553 35.298 51.1246 35.4563 51.0622 35.6031C50.9998 35.7498 50.907 35.8817 50.79 35.9901C50.673 36.0984 50.5343 36.1807 50.3832 36.2317C50.2321 36.2826 50.0719 36.301 49.9131 36.2855H41.9051C41.6931 36.3045 41.4791 36.3235 41.2731 36.3335C41.1841 36.3335 41.0961 36.3405 41.0081 36.3405C40.1241 36.3455 39.3491 36.0935 39.3951 34.9885L39.3931 34.9905ZM84.2851 36.3285C83.9484 36.3182 83.6278 36.1817 83.387 35.9461C83.1462 35.7105 83.0028 35.393 82.9851 35.0565C83.0009 34.8657 83.0563 34.6803 83.1476 34.5121C83.239 34.3438 83.3644 34.1965 83.5159 34.0794C83.6673 33.9622 83.8415 33.878 84.0273 33.8318C84.2131 33.7857 84.4065 33.7788 84.5951 33.8115C85.4011 33.8785 85.9151 34.3315 85.8471 35.1435C85.8429 35.3142 85.8033 35.4821 85.7307 35.6366C85.6581 35.7911 85.5542 35.9288 85.4256 36.041C85.2969 36.1532 85.1464 36.2374 84.9834 36.2883C84.8205 36.3392 84.6488 36.3556 84.4791 36.3365C84.4151 36.3365 84.3501 36.3335 84.2851 36.3285ZM74.9851 36.3185H72.4251C72.0586 36.3459 71.6904 36.3396 71.3251 36.2995C71.1657 36.286 71.0104 36.241 70.8684 36.1672C70.7264 36.0934 70.6003 35.9923 70.4976 35.8696C70.3948 35.7469 70.3173 35.6051 70.2695 35.4524C70.2217 35.2996 70.2046 35.1389 70.2191 34.9795C70.2283 34.684 70.3463 34.4023 70.5504 34.1885C70.7545 33.9746 71.0304 33.8436 71.3251 33.8205C71.6907 33.7855 72.0585 33.7792 72.4251 33.8015H74.9851C75.3516 33.7744 75.7198 33.7808 76.0851 33.8205C76.2456 33.8327 76.402 33.8768 76.5451 33.9502C76.6883 34.0237 76.8153 34.125 76.9187 34.2483C77.0221 34.3716 77.0999 34.5143 77.1473 34.668C77.1948 34.8218 77.211 34.9834 77.1951 35.1435C77.1871 35.4381 77.0702 35.7193 76.8671 35.9328C76.664 36.1462 76.3889 36.2769 76.0951 36.2995C75.9466 36.3255 75.7959 36.3376 75.6451 36.3355C75.4261 36.3355 75.2061 36.3185 74.9891 36.3185H74.9851ZM51.7151 34.9295C51.8501 33.6165 52.9151 33.6745 53.9051 33.7705H60.0051C60.1767 33.7572 60.349 33.7822 60.5098 33.8437C60.6705 33.9052 60.8155 34.0016 60.9344 34.1261C61.0532 34.2505 61.143 34.3998 61.197 34.5631C61.2511 34.7264 61.2682 34.8998 61.2471 35.0705C61.2461 35.23 61.2128 35.3875 61.1491 35.5337C61.0854 35.6798 60.9926 35.8115 60.8765 35.9208C60.7603 36.03 60.6232 36.1145 60.4734 36.1691C60.3236 36.2237 60.1643 36.2473 60.0051 36.2385H53.9051C53.6921 36.2475 53.4781 36.2775 53.2761 36.2775H53.2451C52.3301 36.2805 51.6231 35.9025 51.7191 34.9295H51.7151ZM1.91213 27.6935C1.42401 27.3191 1.03973 26.8262 0.795793 26.2614C0.551855 25.6967 0.456362 25.079 0.518387 24.4669C0.580412 23.8549 0.797894 23.2689 1.15017 22.7646C1.50245 22.2603 1.97782 21.8544 2.53113 21.5855C4.06789 20.8299 5.74514 20.4025 7.45613 20.3305C9.79971 20.1189 12.1622 20.3021 14.4451 20.8725C15.0841 21.0265 15.8221 21.1615 15.6191 22.0385C15.3841 23.0725 14.5621 22.5135 14.0481 22.3975C10.7911 21.6715 7.52413 21.2095 4.22813 22.1345C2.93813 22.4925 1.34713 22.8345 1.30013 24.4035C1.26113 25.8385 2.74513 26.4285 3.93713 26.8535C7.67898 28.226 11.7669 28.3377 15.5781 27.1715C17.0731 26.7185 18.6121 26.0435 18.8921 24.2875C19.1661 22.5605 17.9641 21.4525 16.7411 20.4525C16.4121 20.1835 16.0541 19.9615 15.6931 19.7205C15.2091 19.4125 14.6571 19.2205 14.8021 18.4075C14.9481 17.6175 15.5771 17.6375 16.1021 17.4445C16.5471 17.2785 17.0301 17.1915 17.4791 17.0175C18.6401 16.5745 19.7281 16.1175 19.5331 14.5005C19.5809 13.8684 19.7347 13.2487 19.9881 12.6675C20.1241 12.1185 20.3181 11.6245 20.9981 11.6345C21.8301 11.6535 21.8201 12.3785 21.9081 12.9085C21.9931 13.7617 21.8069 14.62 21.376 15.3612C20.9451 16.1025 20.2915 16.6891 19.5081 17.0375C18.3768 17.5814 17.1814 17.9802 15.9501 18.2245C16.9402 18.8929 17.8391 19.6872 18.6241 20.5875C20.5841 23.0775 20.2431 25.7395 17.7151 27.6805C15.8551 29.1045 12.8261 29.8155 9.80113 29.8155C6.77613 29.8155 3.76213 29.1095 1.91213 27.6935ZM48.9821 28.0625C48.3377 27.7337 47.8077 27.2179 47.4615 26.5826C47.1153 25.9473 46.9691 25.2223 47.0421 24.5025C47.0595 23.8291 47.2811 23.1768 47.6775 22.6321C48.074 22.0874 48.6266 21.6761 49.2621 21.4525C53.2771 19.7765 57.3861 19.9525 61.5051 20.9805C61.6264 20.9931 61.7435 21.0322 61.8479 21.0952C61.9523 21.1582 62.0415 21.2434 62.1091 21.3449C62.1768 21.4463 62.2211 21.5615 62.2391 21.6821C62.2571 21.8027 62.2482 21.9258 62.2131 22.0425C62.0131 22.8425 61.3701 22.5425 60.9061 22.4425C58.1176 21.6789 55.2098 21.4498 52.3361 21.7675C51.0586 21.8853 49.8235 22.2871 48.7211 22.9435C47.4981 23.7745 47.4411 24.6905 48.4991 25.6845C48.6186 25.7921 48.7445 25.8923 48.8761 25.9845C52.1631 28.4345 60.7621 28.5615 64.0871 26.2155C65.7871 25.0205 66.0161 23.3805 64.6191 21.7015C62.9191 19.6445 60.5581 18.6615 58.1041 17.8405C57.6971 17.7055 57.2911 17.5895 56.8721 17.4835C56.2621 17.3195 55.6911 17.0885 55.9341 16.3055C56.1751 15.5445 56.7471 15.8425 57.2521 16.0055C59.7853 16.6719 62.1481 17.8687 64.1841 19.5165C64.9941 20.2115 65.6397 21.0777 66.0741 22.0525C66.0981 21.9465 66.1011 21.7975 66.1571 21.7785C68.0571 20.9785 68.5621 19.5295 68.6791 17.5225C68.8531 14.4155 69.4791 11.3295 69.9081 8.22254C69.9971 7.58454 70.1011 6.99654 70.9271 7.13054C71.7811 7.27554 71.4111 7.94254 71.3441 8.40554C70.8211 11.8685 70.2111 15.3135 69.9381 18.8255C70.5801 18.8345 70.8801 18.3255 71.2381 17.9875C76.0461 13.4815 79.6041 8.24254 80.9031 1.68054C81.0201 1.06354 81.0301 0.242542 81.9791 0.502542C82.8321 0.736542 82.3971 1.50254 82.3001 1.97954C80.9901 8.15254 77.6841 13.2005 73.2431 17.5895C72.7871 18.0445 72.3041 18.4585 71.6641 19.0465C73.0401 19.2095 74.4261 19.2195 74.8911 20.6285C75.5811 22.7405 74.9491 24.6985 73.9911 26.5925C74.1651 26.9925 74.4671 26.9565 74.7721 26.9245C74.958 26.8819 75.1527 26.9005 75.3271 26.9775C79.8541 25.9635 82.6961 22.9335 84.8671 19.1035C85.2236 18.4524 85.5379 17.779 85.8081 17.0875C86.0401 16.5095 86.2921 15.8805 87.0271 16.1875C87.9881 16.5725 87.2021 17.2085 87.0181 17.6125C85.1181 21.7915 82.4251 25.2455 77.9931 27.0405C76.8075 27.5276 75.5434 27.7952 74.2621 27.8305C73.5796 27.8276 72.9058 27.9837 72.2941 28.2865C71.9848 28.4782 71.634 28.5926 71.2711 28.6201C70.9083 28.6476 70.5442 28.5874 70.2096 28.4445C69.875 28.3016 69.5797 28.0802 69.3486 27.7992C69.1176 27.5181 68.9576 27.1855 68.8821 26.8295C68.4007 25.1567 68.1946 23.4166 68.2721 21.6775C67.5091 21.7545 66.8831 22.5835 66.0831 22.0775C67.0561 24.4495 66.0121 26.8615 63.0571 28.4135C60.9129 29.3949 58.5686 29.86 56.2121 29.7715H55.9411C53.5129 29.8112 51.1157 29.2224 48.9821 28.0625ZM71.2461 20.4365C70.5651 21.1806 70.1685 22.141 70.126 23.1488C70.0836 24.1565 70.3981 25.1469 71.0141 25.9455C72.0321 27.0655 72.5141 26.9785 73.0781 25.5605C73.4435 24.6725 73.6568 23.7294 73.7091 22.7705C73.7585 22.1492 73.6754 21.5244 73.4651 20.9375C73.1651 20.2645 72.7581 19.9185 72.2951 19.9185C71.8926 19.9526 71.5179 20.1376 71.2461 20.4365ZM30.7251 26.8525C30.4658 26.0484 30.3033 25.2162 30.2411 24.3735C30.1631 23.5335 30.2211 22.6735 30.2211 21.8165C29.8961 21.8168 29.5776 21.9076 29.3011 22.0785C28.8641 22.2975 28.4451 22.5175 27.9421 22.1345C27.9711 22.0185 27.9711 21.8745 28.0221 21.8545C30.0101 21.0845 30.3861 19.5205 30.5421 17.5815C30.7931 14.4165 31.3741 11.2815 31.8001 8.12554C31.8891 7.49954 32.1321 7.08254 32.8101 7.21954C33.5391 7.35454 33.2761 7.91354 33.2101 8.36654C32.7101 11.8595 32.2301 15.3615 31.6981 19.1255C31.9583 18.9849 32.2104 18.8296 32.4531 18.6605C37.5951 14.0405 41.4261 8.60754 42.7841 1.69954C42.9001 1.12154 42.9201 0.418542 43.7741 0.562542C44.7521 0.725542 44.2741 1.47754 44.1811 1.94954C42.8721 8.30854 39.4391 13.4605 34.8341 17.9495C34.4471 18.3155 34.0501 18.6615 33.4891 19.1845C36.4731 19.4255 37.2401 20.3505 36.9501 23.2075C36.8654 24.9763 36.1212 26.6493 34.8641 27.8965C34.3605 28.4078 33.6812 28.7085 32.9641 28.7375C32.4372 28.708 31.934 28.5083 31.5303 28.1684C31.1266 27.8285 30.844 27.3668 30.7251 26.8525ZM33.2441 20.3785C31.4801 21.7395 31.6271 25.3375 33.4691 26.5345C34.0101 26.8915 34.3691 26.9345 34.6881 26.2555C35.2101 25.0986 35.5129 23.8549 35.5811 22.5875C35.6376 22.0031 35.5372 21.4142 35.2901 20.8815C35.0161 20.2815 34.6461 19.9815 34.2051 19.9815C33.85 20.0051 33.5124 20.1446 33.2441 20.3785ZM41.2441 27.3735C40.9611 25.9639 40.87 24.5226 40.9731 23.0885C41.1108 22.4581 41.0055 21.799 40.6783 21.2428C40.3511 20.6866 39.8261 20.2744 39.2081 20.0885C36.7291 18.9035 36.5231 16.8885 38.7721 15.2755C40.785 13.8116 43.0852 12.7906 45.5211 12.2797C47.9571 11.7688 50.4737 11.7797 52.9051 12.3115C54.8141 12.6875 55.0941 13.6245 54.0881 15.3325C54.0184 15.4756 53.9296 15.6084 53.8241 15.7275C53.3301 16.2475 52.9341 17.4445 52.3051 17.0785C51.4501 16.5785 52.6531 15.9875 52.8561 15.4095C53.1851 14.4725 53.0301 13.8555 52.0911 13.4995C51.7985 13.3685 51.4876 13.2832 51.1691 13.2465C47.6424 12.8685 44.0819 13.5263 40.9231 15.1395C38.4611 16.4305 38.4511 17.8685 40.9231 19.5865C41.0481 18.6515 41.1451 17.8595 41.2801 17.0785C41.2897 16.8873 41.3727 16.7071 41.5119 16.5755C41.651 16.444 41.8356 16.3713 42.0271 16.3725C42.5891 16.4015 42.4351 16.8855 42.4441 17.2325C42.4754 17.7633 42.4626 18.2958 42.4061 18.8245C42.2511 19.9615 42.4741 20.8015 43.7731 21.0525C44.1121 21.1195 44.6051 21.2525 44.4031 21.7525C44.2481 22.1305 43.8121 21.9455 43.5511 21.8195C42.4511 21.3085 42.3681 21.8965 42.3191 22.7755C42.3467 24.6856 42.1748 26.5932 41.8061 28.4675C41.2611 28.2525 41.3111 27.7875 41.2441 27.3735ZM18.8871 28.0045C18.6941 27.4265 19.3641 27.4045 19.7001 27.2625C21.3867 26.6206 23.0095 25.8221 24.5471 24.8775C26.8471 23.3045 26.7601 22.0135 24.3541 20.6715C23.8701 20.4015 22.7251 20.3925 23.0741 19.6575C23.4921 18.7905 24.4031 19.4645 25.0241 19.7825C26.3631 20.4495 27.6991 21.1625 27.9621 22.6975C27.9671 23.0434 27.8958 23.386 27.7532 23.7012C27.6106 24.0163 27.4002 24.296 27.1371 24.5205C25.0901 26.3925 22.4951 27.2525 20.0001 28.2925C19.849 28.3561 19.6871 28.39 19.5231 28.3925C19.3891 28.406 19.2543 28.3754 19.1392 28.3054C19.024 28.2354 18.9349 28.1298 18.8851 28.0045H18.8871ZM59.6001 24.3625C59.613 24.1232 59.7129 23.8969 59.8811 23.7261C60.0492 23.5554 60.274 23.452 60.5131 23.4355C60.6057 23.4209 60.7004 23.4292 60.7891 23.4597C60.8777 23.4902 60.9575 23.542 61.0214 23.6105C61.0854 23.679 61.1316 23.7621 61.1559 23.8526C61.1803 23.9431 61.1821 24.0382 61.1611 24.1295C61.1396 24.3968 61.0234 24.6477 60.8335 24.837C60.6436 25.0263 60.3925 25.1418 60.1251 25.1625C59.6491 25.0855 59.5331 24.7675 59.6001 24.3625Z" fill="#0B032D"/>
</g>
<defs>
<clipPath id="clip0_6_11532">
<rect width="87" height="37" fill="white" transform="translate(0.5)"/>
</clipPath>
</defs>
</svg>
